<svg xmlns="http://www.w3.org/2000/svg" version="1.2" baseProfile="tiny-ps" viewBox="-13.685 -11.5465 88 88" width="88" height="88" preserveAspectRatio="xMidYMid meet" xml:space="preserve">
    <title>Algora</title>
    <rect x="-13.685" y="-11.5465" width="88" height="88" fill="#000000"/>
    <g fill="#ffffff">
      <path d="M30.237 52.657A20.767 20.767 0 1 0 9.47 31.89a20.791 20.791 0 0 0 20.767 20.767Zm-15.61-20.799a18.889 18.889 0 0 1-.924 5.961 14.036 14.036 0 0 1-.722 1.778c-2.204-4.365-2.21-10.813 0-15.38 1.103 2.204 1.656 4.913 1.656 7.641zm11.927-18.563a9.308 9.308 0 0 1 1.75-.185h.023c-2.193 3.627-9.152 7.787-13.25 7.787h-.238c1.762-3.17 7.416-6.755 11.726-7.602zm18.952 7.58c-4.498-.13-11.229-4.045-13.39-7.715a14.343 14.343 0 0 1 1.897.236c4.458.846 9.006 3.754 11.504 7.48zM33.365 37.327c3.148 2.593 3.749 2.934 7.802 4.498a21.815 21.815 0 0 0-7.707 4.363 21.743 21.743 0 0 0-.085-8.86zm-1.27 13.404c2.434-3.884 9.083-7.79 13.467-7.79h.018c-2.423 3.887-9.054 7.79-13.435 7.79zm13.136-9.94c-3.95 0-10.877-4.202-13.123-7.798 5.654.683 10.075 3.239 13.467 7.784-.111 0-.227.005-.344.005zM43.853 36a30.734 30.734 0 0 0-3.25-2.264 29.427 29.427 0 0 0-3.547-1.654l-.456-.193a21.235 21.235 0 0 0 7.618-4.342 21.566 21.566 0 0 0 .042 8.763zm-2.82-14.054c-.167.069-.331.143-.496.209a31.007 31.007 0 0 0-3.542 1.672 30.014 30.014 0 0 0-3.175 2.22c-.138.1-.265.206-.408.31a21.86 21.86 0 0 0 .043-8.745 21.765 21.765 0 0 0 7.583 4.334zm4.553 1.114c-1.657 3.384-8.766 7.503-13.494 7.77 2.405-3.878 8.871-7.64 13.499-7.77zM28.34 50.73h-.116c-4.234 0-10.978-4.003-13.34-7.77 5.643.671 10.059 3.22 13.456 7.77zm-4.429-18.817a21.381 21.381 0 0 0-7.7 4.368 21.96 21.96 0 0 0 0-8.731 21.355 21.355 0 0 0 7.7 4.352zm3.053-5.62a22.085 22.085 0 0 0-7.482-4.318 22.82 22.82 0 0 0 7.496-4.35 22.328 22.328 0 0 0-.014 8.658zm-5.413 8.782c.325-.167.654-.328.984-.482a20.585 20.585 0 0 1 1.993-.794 14.12 14.12 0 0 1 3.817-.793 14.092 14.092 0 0 1-3.264 3.49c-3.04 2.405-7.173 4.272-10.219 4.288 1.14-2.071 3.768-4.204 6.689-5.72zm5.495 11.27c-3.44-2.865-4.868-3.462-7.728-4.476a21.534 21.534 0 0 0 7.652-4.342 21.847 21.847 0 0 0 .076 8.808zm3.152 3.25c-2.21-5.21-2.21-10.28 0-15.46 2.256 4.374 2.262 10.832 0 15.45zm.045-35.354c2.209 5.205 2.209 10.28 0 15.463-2.252-4.39-2.265-10.851 0-15.473zm-15.301 8.822c3.76 0 9.62 3.175 12.422 6.413a8.731 8.731 0 0 1 .997 1.379c-4.402 0-11.27-4.046-13.493-7.792.031-.011.076-.005.074-.011zm32.512 1.166c2.19 4.498 2.193 10.71 0 15.407-2.233-4.577-2.236-10.917 0-15.417z"/>
      <path d="M24.93 10.779a14.314 14.314 0 0 1 1.99-.53l1.666-2.888a3.493 3.493 0 0 0 .76.264v2.36c.288 0 .563-.042.86-.042.206 0 .396.024.6.029V7.678a3.601 3.601 0 0 0 1.021-.31l1.667 2.89a14.512 14.512 0 0 1 1.99.529l-2.48-4.278a3.86 3.86 0 1 0-5.616 0zM50.856 39.95l3.511 6.085c-.127.106-.264.206-.373.322l-4.418-2.934c-.223.437-.46.86-.72 1.273l4.34 2.884a4.035 4.035 0 0 0-.218.733h-7.392a13.645 13.645 0 0 1-2.413 1.46h9.808a3.86 3.86 0 1 0 3.786-4.598 3.704 3.704 0 0 0-1.103.182l-4.424-7.673a17.478 17.478 0 0 1-.384 2.265zM3.975 52.906A3.86 3.86 0 0 0 7.76 49.78h9.676a13.443 13.443 0 0 1-2.408-1.46H7.761a3.535 3.535 0 0 0-.24-.794l4.232-2.815c-.264-.416-.5-.839-.722-1.278l-4.336 2.884a4.284 4.284 0 0 0-.413-.35l3.471-6.01a17.41 17.41 0 0 1-.389-2.252L4.96 45.33a3.752 3.752 0 0 0-.995-.148 3.863 3.863 0 1 0 0 7.723z"/>
    </g>
  </svg>