<?xml version="1.0" encoding="UTF-8" standalone="no"?>
<svg
   id="Layer_1"
   data-name="Layer 1"
   viewBox="0 0 4363.3999 806.94501"
   version="1.1"
   sodipodi:docname="spaceandtimelabs.svg"
   width="4363.3999"
   height="806.94501"
   inkscape:version="1.2.2 (b0a8486541, 2022-12-01)"
   xmlns:inkscape="http://www.inkscape.org/namespaces/inkscape"
   xmlns:sodipodi="http://sodipodi.sourceforge.net/DTD/sodipodi-0.dtd"
   xmlns:xlink="http://www.w3.org/1999/xlink"
   xmlns="http://www.w3.org/2000/svg"
   xmlns:svg="http://www.w3.org/2000/svg">
  <sodipodi:namedview
     id="namedview47"
     pagecolor="#ffffff"
     bordercolor="#666666"
     borderopacity="1.0"
     inkscape:showpageshadow="2"
     inkscape:pageopacity="0.0"
     inkscape:pagecheckerboard="0"
     inkscape:deskcolor="#d1d1d1"
     showgrid="false"
     inkscape:zoom="0.21513218"
     inkscape:cx="2960.9703"
     inkscape:cy="402.07839"
     inkscape:window-width="1854"
     inkscape:window-height="1123"
     inkscape:window-x="0"
     inkscape:window-y="0"
     inkscape:window-maximized="1"
     inkscape:current-layer="Layer_1" />
  <defs
     id="defs32">
    <style
       id="style2">
      .cls-1 {
        fill: url(#radial-gradient);
      }

      .cls-1, .cls-2, .cls-3 {
        stroke-width: 0px;
      }

      .cls-2 {
        fill: url(#radial-gradient-2);
      }

      .cls-3 {
        fill: #e6e6e6;
      }
    </style>
    <radialGradient
       id="radial-gradient"
       cx="1962.28"
       cy="1549.46"
       fx="1962.28"
       fy="1549.46"
       r="0.5"
       gradientTransform="matrix(1859.0848,-1134.7902,-1178.232,-1930.2539,-1822440.7,5218462.6)"
       gradientUnits="userSpaceOnUse">
      <stop
         offset="0"
         stop-color="#5000bf"
         id="stop4" />
      <stop
         offset=".06"
         stop-color="#6900c2"
         id="stop6" />
      <stop
         offset=".13"
         stop-color="#9700c7"
         id="stop8" />
      <stop
         offset=".2"
         stop-color="#bc00cc"
         id="stop10" />
      <stop
         offset=".27"
         stop-color="#d900d0"
         id="stop12" />
      <stop
         offset=".35"
         stop-color="#ee00d2"
         id="stop14" />
      <stop
         offset=".43"
         stop-color="#fa00d4"
         id="stop16" />
      <stop
         offset=".5"
         stop-color="#ff00d5"
         id="stop18" />
      <stop
         offset=".56"
         stop-color="#fb26e2"
         id="stop20" />
      <stop
         offset=".65"
         stop-color="#f55df7"
         id="stop22" />
      <stop
         offset=".7"
         stop-color="#f373ff"
         id="stop24" />
      <stop
         offset=".8"
         stop-color="#eabfff"
         id="stop26" />
      <stop
         offset=".9"
         stop-color="#9cf"
         id="stop28" />
    </radialGradient>
    <radialGradient
       id="radial-gradient-2"
       cy="1549.46"
       fy="1549.46"
       r="0.5"
       xlink:href="#radial-gradient"
       gradientTransform="translate(0,-145.015)" />
    <radialGradient
       inkscape:collect="always"
       xlink:href="#radial-gradient"
       id="radialGradient101"
       gradientUnits="userSpaceOnUse"
       gradientTransform="matrix(1859.0848,-1134.7902,-1178.232,-1930.2539,-1822440.7,5218317.6)"
       cx="1962.28"
       cy="1549.46"
       fx="1962.28"
       fy="1549.46"
       r="0.5" />
  </defs>
  <path
     class="cls-3"
     d="m 1033.84,541.665 c 66.66,0 107.41,-33.31 107.41,-86.96 0,-50.19 -38.8,-67.12 -98.42,-80 -39.74,-8.44 -52.73,-13.93 -52.73,-30.35 0,-13.46 11.95,-23.38 33.31,-23.38 24.87,0 51.72,9.46 76.58,28.33 l 33.78,-47.7 c -28.33,-23.38 -63.67,-36.3 -108.42,-36.3 -61.18,0 -102.43,34.32 -102.43,85.49 0,51.17 42.77,69.07 99.9,82.02 38.8,9.46 51.25,12.92 51.25,28.87 0,14.4 -12.92,24.32 -37.78,24.32 -32.77,0 -61.64,-12.45 -88.03,-33.77 l -37.32,44.75 c 32.38,29.3 75.65,44.71 122.9,44.71 z m 167.03,-4.43 h 66.66 v -83.54 h 57.67 c 58.68,0 101.45,-37.78 101.45,-91.98 0,-54.2 -42.77,-91.98 -101.45,-91.98 h -124.3 v 267.51 h -0.04 z m 66.66,-144.16 v -62.64 h 51.25 c 23.39,0 39.27,12.45 39.27,31.28 0,18.83 -15.88,31.28 -39.27,31.28 h -51.25 z m 404.18,144.16 h 75.11 l -105.93,-267.39 h -75.11 l -105.38,267.39 h 74.56 l 15.41,-38.8 h 105.93 z m -100.44,-90.97 32.3,-82.02 31.83,82.02 z m 359,95.4 c 41.76,0 79.55,-17.9 106.4,-46.22 l -48.18,-42.76 c -14.4,17.35 -35.3,28.87 -58.18,28.87 -40.75,0 -75.57,-35.8 -75.57,-78.05 0,-42.25 34.83,-78.05 75.57,-78.05 22.38,0 43.74,11.4 57.67,28.87 l 48.72,-43.27 c -26.85,-27.82 -64.6,-45.76 -106.39,-45.76 -78.07,0 -143.72,63.11 -143.72,138.21 0,75.1 65.61,138.17 143.68,138.17 z m 372.38,-212.25 v -59.65 h -210.3 v 59.69 h 210.3 z m -210.26,41.75 v 166.03 h 210.3 v -59.65 h -144.18 v -47.24 h 130.79 v -59.14 z"
     id="path34" />
  <path
     class="cls-3"
     d="m 2615.63,539.385 h 42.79 l -114.06,-267.26 h -43.76 l -115.03,267.26 h 43.76 l 23.74,-54.19 h 138.74 l 23.75,54.19 z m -147.34,-90.3 54.14,-126.54 54.15,126.54 z m 257.55,90.3 h 39.9 v -202.59 l 153.03,202.59 h 39.9 v -267.26 h -39.9 v 202.59 l -153.03,-202.59 h -39.9 z m 323.14,0 h 92.22 c 86.46,0 148.27,-56.1 148.27,-134.1 0,-78 -61.82,-133.16 -148.27,-133.16 h -92.22 z m 39.9,-36.11 V 307.305 H 3144 c 61.82,0 104.52,40.87 104.52,97.98 0,57.11 -42.79,97.98 -104.52,97.98 h -55.12 z"
     id="path36" />
  <path
     class="cls-3"
     d="m 3444.54,538.535 h 66.66 v -207.28 h 81.06 v -59.69 h -228.74 v 59.69 h 81.06 v 207.28 z m 206.83,0 h 66.62 v -266.94 h -66.62 z m 140.75,0 h 66.62 v -154.64 l 77.05,139.23 77.05,-139.23 v 154.64 h 66.62 v -266.94 h -66.62 l -77.05,139.23 -77.05,-139.23 h -66.62 z"
     id="path38" />
  <path
     class="cls-3"
     d="m 4152.94,372.525 v 166.01 h 210.46 v -59.14 h -144.29 v -47.23 H 4350 v -59.64 z m 210.46,-41.28 v -59.68 h -210.46 v 59.64 h 210.46 z"
     id="path40" />
  <path
     class="cls-1"
     d="m 667.04,445.755 c -18.66,0 -33.82,15.13 -33.82,33.83 v 89.34 l -282.78,165.1 -282.78,-165.1 v -320.99 c 171.58,22.99 300.98,171.12 300.98,344.57 0,5.84 -0.15,11.77 -0.44,17.58 -0.93,18.67 13.44,34.54 32.1,35.44 0.58,0 1.14,0.03 1.69,0.03 17.91,0 32.83,-14.06 33.74,-32.14 0.35,-6.93 0.53,-13.97 0.53,-20.92 0,-101.23 -36.83,-198.76 -103.7,-274.6 -51.44,-58.34 -117.72,-100.71 -191.03,-122.94 l 208.91,-121.98 98.03,57.23 c 16.12,9.41 36.83,3.97 46.24,-12.15 9.4,-16.13 3.97,-36.84 -12.15,-46.25 L 367.47,4.605 c -10.52,-6.14 -23.54,-6.14 -34.09,0 L 16.77,189.445 C 6.4,195.495 0,206.625 0,218.665 v 369.63 c 0,12.04 6.4,23.14 16.77,29.22 l 316.61,184.81 c 5.26,3.07 11.16,4.62 17.03,4.62 5.87,0 11.77,-1.55 17.03,-4.62 l 316.61,-184.81 c 10.37,-6.05 16.77,-17.18 16.77,-29.22 v -108.74 c 0,-18.67 -15.13,-33.83 -33.82,-33.83 l 0.05,0.03 z"
     id="path42"
     style="fill:url(#radialGradient101)" />
  <path
     class="cls-2"
     d="m 627.93,107.695 c -82.75,0 -150.08,67.34 -150.08,150.11 0,82.77 67.33,150.11 150.08,150.11 82.75,0 150.08,-67.34 150.08,-150.11 0,-82.77 -67.33,-150.11 -150.08,-150.11 z m 0,232.62 c -45.48,0 -82.46,-37.02 -82.46,-82.48 0,-45.46 37.01,-82.48 82.46,-82.48 45.45,0 82.46,37.02 82.46,82.48 0,45.46 -37.01,82.48 -82.46,82.48 z"
     id="path44"
     style="fill:url(#radial-gradient-2)" />
</svg>
