<?xml version="1.0" encoding="UTF-8" standalone="no"?>
<!DOCTYPE svg PUBLIC "-//W3C//DTD SVG 1.1//EN" "http://www.w3.org/Graphics/SVG/1.1/DTD/svg11.dtd">
<svg width="100%" height="100%" viewBox="0 0 303 75" version="1.1" xmlns="http://www.w3.org/2000/svg" xmlns:xlink="http://www.w3.org/1999/xlink" xml:space="preserve" xmlns:serif="http://www.serif.com/" style="fill-rule:evenodd;clip-rule:evenodd;stroke-linejoin:round;stroke-miterlimit:2;">
    <g transform="matrix(1,0,0,1,-8.31025,-8.31025)">
        <g>
            <path d="M129.87,32.133C130.621,31.875 131.059,31.036 130.872,30.262C129.432,25.486 125.177,20 115.666,20C107.406,20 100.586,26.325 100.586,34.005C100.586,40.846 105.091,45.428 111.849,46.848L118.106,48.203C121.923,49.042 124.051,51.43 124.051,54.399C124.051,57.948 121.298,60.723 115.979,60.723C110.285,60.723 107.031,57.238 106.092,53.108C106.03,52.721 105.779,52.398 105.404,52.204C105.028,52.011 104.653,51.946 104.277,52.011C102.963,52.398 101.211,52.914 100.085,53.237C99.334,53.495 98.896,54.205 99.021,54.915C100.21,61.175 105.466,67.693 115.979,67.693C126.116,67.693 131.685,60.917 131.685,53.818C131.685,47.364 127.493,42.266 119.671,40.652L113.288,39.297C109.847,38.522 108.095,36.328 108.095,33.424C108.095,29.939 111.223,26.841 115.729,26.841C120.735,26.841 123.175,29.81 124.051,32.456C124.301,33.23 125.177,33.618 125.928,33.359C127.117,33.037 128.744,32.456 129.87,32.133Z" style="fill:rgb(31,45,93);fill-rule:nonzero;"/>
            <path d="M142.635,79.423C143.198,79.423 143.699,79.101 143.949,78.52C146.327,73.228 158.592,45.218 162.033,37.344C162.284,36.893 162.221,36.376 161.971,35.925C161.658,35.537 161.22,35.279 160.719,35.279L156.276,35.279C155.651,35.279 155.15,35.667 154.9,36.183C153.273,40.12 147.078,55.157 147.078,55.157C147.078,55.157 140.383,39.991 138.693,36.183C138.443,35.602 137.942,35.279 137.379,35.279L132.436,35.279C131.935,35.279 131.497,35.537 131.184,35.989C130.934,36.376 130.871,36.957 131.121,37.409C134.125,43.863 143.136,62.966 143.136,62.966C143.136,62.966 138.693,72.905 136.753,77.358C136.565,77.81 136.565,78.326 136.878,78.778C137.129,79.165 137.567,79.423 138.067,79.423L142.635,79.423Z" style="fill:rgb(31,45,93);fill-rule:nonzero;"/>
            <path d="M172.418,48.542C172.418,44.412 174.608,41.12 178.738,41.12C183.306,41.12 184.995,44.218 184.995,48.09L184.995,65.193C184.995,65.58 185.12,65.967 185.433,66.225C185.683,66.548 186.059,66.677 186.497,66.677L190.752,66.677C191.565,66.677 192.254,66.032 192.254,65.193L192.254,46.8C192.254,39.894 188.687,34.344 181.241,34.344C177.862,34.344 174.232,35.828 172.23,39.442C172.23,37.119 170.353,35.247 168.037,35.247L166.661,35.247C166.223,35.247 165.847,35.376 165.597,35.699C165.284,35.957 165.159,36.344 165.159,36.732L165.159,65.193C165.159,65.58 165.284,65.967 165.597,66.225C165.847,66.548 166.223,66.677 166.661,66.677L170.916,66.677C171.729,66.677 172.418,66.032 172.418,65.193L172.418,48.542Z" style="fill:rgb(31,45,93);fill-rule:nonzero;"/>
            <path d="M203.021,47.574C203.272,44.218 205.9,40.604 210.468,40.604C215.474,40.604 217.851,43.895 217.977,47.574L203.021,47.574ZM220.104,56.222C219.416,55.964 218.602,56.287 218.289,56.996C217.163,59.449 214.973,61.256 211.156,61.256C206.651,61.256 203.021,57.836 202.834,53.06L223.796,53.06C224.609,53.06 225.235,52.414 225.298,51.64L225.298,50.672C225.298,40.733 219.791,34.344 210.405,34.344C202.708,34.344 195.575,40.927 195.575,50.865C195.575,61.514 202.896,67.71 211.156,67.71C217.789,67.71 222.357,64.031 224.359,59.255C224.547,58.868 224.547,58.481 224.359,58.094C224.171,57.706 223.859,57.448 223.483,57.319C222.482,56.996 221.105,56.545 220.104,56.222Z" style="fill:rgb(31,45,93);fill-rule:nonzero;"/>
            <path d="M246.943,36.348C246.943,35.573 246.317,34.928 245.566,34.863L245.003,34.863C240.998,34.863 237.619,36.864 236.18,40.285C236.18,37.509 233.927,35.251 231.174,35.251L230.611,35.251C230.173,35.251 229.797,35.38 229.547,35.702C229.234,35.96 229.109,36.348 229.109,36.735L229.109,65.196C229.109,65.583 229.234,65.971 229.547,66.229C229.797,66.551 230.173,66.68 230.611,66.68L234.866,66.68C235.679,66.68 236.368,66.035 236.368,65.196L236.368,51.708C236.368,45.835 238.933,42.479 244.565,42.479L245.378,42.479C245.817,42.543 246.192,42.35 246.505,42.092C246.755,41.833 246.943,41.446 246.943,40.994L246.943,36.348Z" style="fill:rgb(31,45,93);fill-rule:nonzero;"/>
            <path d="M248.693,68.126C247.942,68.384 247.442,69.158 247.63,69.933C249.069,75.612 254.45,80.001 261.897,80.001C273.348,80.001 277.54,72.192 277.54,63.802L277.54,36.825C277.54,35.986 276.852,35.341 276.038,35.341L274.537,35.341C273.473,35.341 272.472,35.792 271.721,36.502C270.97,37.277 270.532,38.309 270.532,39.342C269.218,36.76 266.277,34.76 261.521,34.76C253.136,34.76 247.442,41.665 247.442,50.055C247.442,58.897 253.386,65.351 261.521,65.351C265.964,65.351 269.03,63.221 270.344,60.769L270.344,64.06C270.344,70.449 267.466,73.482 261.709,73.482C258.017,73.482 255.326,71.288 254.388,68.126C254.137,67.351 253.386,66.9 252.573,67.093C251.447,67.416 249.82,67.868 248.693,68.126ZM262.71,58.961C257.954,58.961 254.763,55.541 254.763,50.055C254.763,44.699 258.08,41.214 262.71,41.214C267.215,41.214 270.532,44.699 270.532,50.055C270.532,55.476 267.341,58.961 262.71,58.961Z" style="fill:rgb(31,45,93);fill-rule:nonzero;"/>
            <path d="M291.311,79.423C291.874,79.423 292.375,79.101 292.625,78.52C295.003,73.228 307.267,45.218 310.709,37.344C310.959,36.893 310.897,36.376 310.646,35.925C310.334,35.537 309.896,35.279 309.395,35.279L304.952,35.279C304.326,35.279 303.826,35.667 303.576,36.183C301.949,40.12 295.754,55.157 295.754,55.157C295.754,55.157 289.058,39.991 287.369,36.183C287.118,35.602 286.618,35.279 286.055,35.279L281.111,35.279C280.611,35.279 280.173,35.537 279.86,35.989C279.61,36.376 279.547,36.957 279.797,37.409C282.801,43.863 291.812,62.966 291.812,62.966C291.812,62.966 287.369,72.905 285.429,77.358C285.241,77.81 285.241,78.326 285.554,78.778C285.804,79.165 286.242,79.423 286.743,79.423L291.311,79.423Z" style="fill:rgb(31,45,93);fill-rule:nonzero;"/>
            <path d="M35.749,81.043C39.697,82.101 43.754,79.758 44.812,75.81C45.87,71.863 43.527,67.805 39.58,66.747C35.632,65.69 31.574,68.032 30.516,71.98C29.459,75.928 31.801,79.985 35.749,81.043Z" style="fill:white;fill-rule:nonzero;"/>
            <path d="M14.815,44.797C18.763,45.855 22.821,43.512 23.878,39.564C24.936,35.617 22.593,31.559 18.646,30.501C14.698,29.443 10.64,31.786 9.583,35.734C8.525,39.681 10.868,43.739 14.815,44.797Z" style="fill:white;fill-rule:nonzero;"/>
            <path d="M54.896,9.577C74.582,14.852 86.297,35.087 81.088,54.776L81.059,54.893C80.002,58.837 75.941,61.182 71.996,60.125C68.049,59.068 65.707,55.007 66.763,51.062L66.78,50.992C69.905,39.177 62.875,27.037 51.066,23.873L51.11,23.885C55.042,24.912 59.076,22.569 60.129,18.64C61.182,14.711 58.859,10.665 54.941,9.589L54.896,9.577Z" style="fill:rgb(51,204,153);"/>
            <path d="M81.055,54.892C75.78,74.577 55.545,86.292 35.856,81.084L35.739,81.055C31.794,79.998 29.45,75.936 30.507,71.992C31.564,68.045 35.625,65.702 39.57,66.759L39.64,66.775C51.455,69.9 63.595,62.871 66.759,51.061L66.747,51.106C65.72,55.037 68.063,59.071 71.992,60.124C75.921,61.177 79.967,58.854 81.043,54.936L81.055,54.892Z" style="fill:rgb(51,178,204);"/>
            <path d="M35.739,81.055C16.054,75.78 4.339,55.545 9.547,35.856L9.576,35.739C10.633,31.794 14.695,29.45 18.639,30.507C22.586,31.564 24.929,35.625 23.872,39.57L23.856,39.64C20.73,51.455 27.76,63.595 39.57,66.759L39.525,66.747C35.594,65.72 31.56,68.063 30.507,71.992C29.454,75.921 31.776,79.967 35.695,81.043L35.739,81.055Z" style="fill:rgb(135,214,57);"/>
            <path d="M9.576,35.739C14.851,16.054 35.086,4.339 54.775,9.547L54.892,9.576C58.837,10.633 61.181,14.695 60.124,18.639C59.067,22.586 55.006,24.929 51.061,23.872L50.991,23.856C39.176,20.73 27.036,27.76 23.872,39.57L23.884,39.525C24.911,35.594 22.568,31.56 18.639,30.507C14.71,29.454 10.664,31.776 9.588,35.695L9.576,35.739Z" style="fill:rgb(59,103,211);"/>
        </g>
    </g>
</svg>
